# xmcd
#
# Track frame offsets:
#	150
#	16112
#	30138
#	46528
#	57451
#	66632
#	75581
#	86237
#	100099
#	115060
#	132175
#	142670
#	151901
#	165313
#	183513
#
# Disc length: 2614 seconds
#
# Revision: 0
# Processed by: cddbd v1.5.2PL0 Copyright (c) Steve Scherf et al.
# Submitted via: EasyCDDAExtractor 10.0.2.1
#
DISCID=ad0a340f
DTITLE=Various Artist - Les chants de la liberté
DYEAR=1900
DGENRE=
TTITLE0=Boris Vian - Le déserteur
TTITLE1=Georges Moustaki - Sans la nommer
TTITLE2=Maxime le forestier - La chanson de Craonne
TTITLE3=Edith Piaf - Ca ira
TTITLE4=Yves Montand - Giroflée Girofla
TTITLE5=Yves Montand - J'avions reçu commandement
TTITLE6=Germaine Sablon - Le chant des partisans
TTITLE7=François Marty - L'internationale
TTITLE8=Charles Trenet - Le temps des cerises
TTITLE9=Yves Montand - La butte rouge
TTITLE10=Yves Montand - Les canuts
TTITLE11=Charles Trenet - Liberté
TTITLE12=Luis Zuccha - Le drapeau rouge
TTITLE13=Yves Montand - La complainte de Mandrin
TTITLE14=Django Reinhardt - La Marseillaise
EXTD=
EXTT0=
EXTT1=
EXTT2=
EXTT3=
EXTT4=
EXTT5=
EXTT6=
EXTT7=
EXTT8=
EXTT9=
EXTT10=
EXTT11=
EXTT12=
EXTT13=
EXTT14=
PLAYORDER=
